<svg id="Layer_1" data-name="Layer 1" xmlns="http://www.w3.org/2000/svg" viewBox="0 0 208.51 220.23">
  <defs>
    <style>
      .cls-1 {
        fill: #00a651;
      }

      .cls-2 {
        fill: #fa3d36;
      }

      .cls-3 {
        fill: #036d33;
        opacity: 0.57;
      }

      .cls-4 {
        fill: #c9222b;
      }

      .cls-5 {
        fill: #cb2a31;
      }

      .cls-6 {
        fill: #bb3f45;
      }

      .cls-7 {
        fill: #c1222d;
      }

      .cls-8 {
        fill: #db2835;
      }

      .cls-9 {
        fill: #dc212d;
      }

      .cls-10 {
        fill: #bd3a42;
      }

      .cls-11 {
        fill: #dd2c38;
      }

      .cls-12 {
        fill: #c96564;
      }

      .cls-13 {
        fill: #b82f36;
      }

      .cls-14 {
        fill: #c12226;
      }

      .cls-15 {
        fill: #e2212e;
      }

      .cls-16 {
        fill: #c2252e;
      }

      .cls-17 {
        fill: #c7232b;
      }

      .cls-18 {
        fill: #fbf2ef;
      }

      .cls-19 {
        fill: #fdf6f5;
      }

      .cls-20 {
        fill: #fcf7f7;
      }

      .cls-21 {
        fill: #fbefed;
      }

      .cls-22 {
        fill: #fcf5f4;
      }

      .cls-23 {
        fill: #fbeeeb;
      }

      .cls-24 {
        fill: #d2474c;
      }

      .cls-25 {
        fill: #d35457;
      }

      .cls-26 {
        fill: #f6aeab;
      }

      .cls-27 {
        fill: #eec3c9;
      }
    </style>
  </defs>
  <rect class="cls-1" x="27.65" y="96.65" width="149.01" height="114.59" rx="1.9"/>
  <rect class="cls-1" x="11.15" y="87.16" width="80.06" height="33.96" rx="3.35"/>
  <rect class="cls-1" x="113.39" y="87.16" width="80.06" height="33.96" rx="3.35"/>
  <path class="cls-2" d="M156.52,41c-8.62-6.46-18.28-7-27.13-.88-7.12,4.89-11.9,11.79-15.8,19.33-2,3.81-3.61,7.79-5.51,11.92-.16-.58-.28-.88-.34-1.2-.1-.58-.18-1.15-.23-1.73A100.2,100.2,0,0,0,101.26,39c-2.63-6.76-5.77-13.25-10.81-18.63l0,0-7.37-7.2-.74-.46h0a6.9,6.9,0,0,0-1-1.06c-8.67-5.74-18.12-9.09-28.6-8.43-7.78.49-14.6,3.46-19.83,9.52h0c-8.47,8.5-12.34,18.79-11,30.69,1,9.09,6.19,16.17,12.4,22.5C40.86,72.64,48.78,77.65,57,82.16l5,2.53,1,.49,3,1.15.42.43h0l.53,0,10.88,0L64.17,81.2h0l0,0c-3-1.85-6.25-3.44-9-5.61-4.42-3.46-9-6.88-12.68-11.06-9-10.25-9.28-22.38-1.43-33.6.42-.61.78-1.26,1.17-1.89h0v0h0c1.4-1.28,2.73-2.67,4.23-3.82,8-6.15,16.79-6.35,25.82-3.17,3.87,1.37,7.43,3.64,11.13,5.5h0L85.25,29v0c.24.25.48.51.73.76,0,.13.07.19.21.16h0l4.74,5.43h0c2,3.9,4.21,7.71,6,11.72,1.43,3.23,2.34,6.7,3.47,10.06l.12,1.18c.59,7.36,1.2,14.72,1.77,22.08.12,1.55.1,3-2.17,3a2.76,2.76,0,0,0-2,1.6c-.6,1.78-1.85,1.81-3.32,1.83-3.06.06-6.11.21-9.16.33v41.5l33.15,9.85V119.72a7.79,7.79,0,0,1-.25-1.43q0-14.42,0-28.81a13.74,13.74,0,0,1,.42-2.43c-.91-.08-1.81-.2-2.72-.23-2.23-.06-4.67.62-5.71-2.48-.23-.72-1.55-1.07-2.83-1.88,1.39-4.2,2.66-8.66,4.31-13,3.1-8.1,7.26-15.57,14.31-21,6.53-5,13.5-5.13,20.15-.63s9,11,6.78,18.95c-2.58,9.32-9.23,14.54-18,17.48-3.13,1.06-6.42,1.66-9.63,2.47.82,0,1.64,0,2.46,0l15.19-.42c1.05-.5,2.12-1,3.15-1.48,6.19-3.18,11.54-7.33,14.83-13.63C166.77,60.72,166.92,48.77,156.52,41Zm-129.35,12h0c.11,0,.23.13.32.16C27.4,53.06,27.28,53,27.17,52.93Zm.56-.12a.36.36,0,0,1,0-.11l-.11-.06.11.06A.36.36,0,0,0,27.73,52.81Zm2-31.92-.76-.6.76.6Zm3.13-8.21h0l2.21-.74ZM39.19,28.3a2.89,2.89,0,0,1,.15-.31h0A2.89,2.89,0,0,0,39.19,28.3Zm44-8.47c0-.09.12-.21.16-.31C83.33,19.62,83.24,19.74,83.21,19.83Zm.4.28h0c0-.11.13-.23.15-.32C83.74,19.88,83.65,20,83.61,20.11ZM86,17.29h0c.63.46,1.25.94,1.89,1.37C87.23,18.23,86.61,17.75,86,17.29Zm7.5,19.5h0c.26.53.51,1.05.76,1.58C94,37.84,93.74,37.32,93.48,36.79ZM106.34,74h0a2.3,2.3,0,0,0-.15.32A2.3,2.3,0,0,1,106.34,74Z"/>
  <polygon class="cls-2" points="118.66 137.66 85.68 126.96 85.68 211.65 118.66 211.65 118.66 137.66"/>
  <rect class="cls-3" x="27.62" y="121.16" width="149.07" height="11.34"/>
  <g>
    <path class="cls-4" d="M115.08,93.38,121,89.7a1.75,1.75,0,0,1,.24-.11v.07l.07,0,.05.07c-1.94,1.2-3.87,2.39-5.8,3.61-.14.09-.31.33-.28.44.09.29.36.24.59.16a1.48,1.48,0,0,0,.35-.19l5.36-3.33.22-.14.43.12,1,.23,0,.16.22-.06a1,1,0,0,1,.33-.08l2.72.38c1.5.2,3,.38,4.51.61a1.66,1.66,0,0,1,.74.44,2.44,2.44,0,0,1,.36.56L161,139.19l.3.49c.22.37.19.44-.29.54l.05-.57-.45.09c-.47-.82-.93-1.66-1.43-2.47s-1.14-1.71-1.69-2.58c-.28-.43-.47-.91-.75-1.34-.49-.79-1-1.55-1.53-2.33-.25-.39-.41-.81-.66-1.2-.49-.78-1-1.54-1.53-2.33s-.83-1.47-1.27-2.19c-.26-.43-.61-.83-.87-1.26-.5-.82-.94-1.66-1.44-2.47s-1.11-1.66-1.64-2.5c-.29-.45-.49-.94-.77-1.39-.39-.62-.83-1.2-1.23-1.82-.55-.88-1.1-1.76-1.64-2.65-.14-.23-.22-.51-.37-.74-.4-.62-.84-1.22-1.23-1.85-.54-.88-1-1.79-1.57-2.67-.27-.44-.61-.83-.87-1.27-.49-.8-.93-1.63-1.42-2.43s-1.11-1.66-1.64-2.5c-.28-.45-.49-.94-.77-1.38-.46-.72-.95-1.41-1.41-2.13s-1.06-1.68-1.57-2.53c-.64-1.06-1.25-2.13-1.89-3.19-.07-.12-.2-.28-.33-.3-.56-.13-1.12-.22-1.69-.3-.28,0-.58,0-.86,0l-.25-.05c-.31,0-.63,0-.94-.08-.74-.12-1.47-.27-2.21-.39s-1.76-.26-2.64-.42a1.56,1.56,0,0,0-1.17.21c-1.74,1.1-3.49,2.18-5.24,3.26a4.59,4.59,0,0,0-.48-.17c-.57-.15-.69-.29-.6-.73Z"/>
    <path class="cls-5" d="M161,139.19,132.1,92.66a1.42,1.42,0,0,0-.06-.42c-.19-.35-.42-.69-.63-1a2,2,0,0,1,.46.39q4.71,7.55,9.39,15.11l11.07,17.86,9.77,15.76.29.46-28.67,17.78-.26-.41q-15.14-24.39-30.25-48.78c-.12-.19-.37-.39-.1-.65l.08.09a2.53,2.53,0,0,0,.19.48L133,157.05l.38.61a2.33,2.33,0,0,1,.2.34c.16.36.34.37.67.16q13.89-8.62,27.79-17.24c0-.09.07-.2,0-.26-.27-.47-.56-.93-.85-1.38C161.17,139.22,161,139.22,161,139.19Z"/>
    <path class="cls-6" d="M119.23,85.66a5.48,5.48,0,0,1-.45,1.21,4.79,4.79,0,0,1-5.77,2,13.05,13.05,0,0,0-1.56-.44,2.3,2.3,0,0,0,.23.37l2.67,3.62a1.21,1.21,0,0,1,.09.2l-.55-.49-.78-1.1c-.14-.18-.29-.36-.44-.53l-.28-.46-.09-.14-.4-.49c-.26-.34-.38-.81-.86-1a.24.24,0,0,1-.09-.21.3.3,0,0,1,.22-.16.84.84,0,0,1,.38.06c.71.22,1.41.46,2.12.66a2.22,2.22,0,0,0,1.4,0c-.14-.1-.2-.19-.27-.2-.3,0-.61,0-.9-.12a13.05,13.05,0,0,1-3.36-1.29c-.58-.33-1.15-.65-1.24-1.29l1.6-.87a4,4,0,0,1,.48-.19,6.82,6.82,0,0,0,1-.45c.65-.43,1.27-.92,1.91-1.38a6.13,6.13,0,0,0,2-2.21c0-.1.08-.22.12-.32l-.17-.09a5.8,5.8,0,0,1-.36.59,11.87,11.87,0,0,1-.89,1c-.21.22-.39.52-.77.5a4.27,4.27,0,0,0,.36-.38,13.66,13.66,0,0,0,1.27-1.7,1.54,1.54,0,0,0-.45-2.09,8.75,8.75,0,0,0-2-1.11,1.9,1.9,0,0,0-2.16.58A4.7,4.7,0,0,0,110.5,79a15.09,15.09,0,0,0-1.15,5.26c0,.3,0,.6,0,1l.81-.34L111.9,84l-.28.22c-.64.35-1.26.72-1.92,1-.37.17-.52,0-.6-.38a3.06,3.06,0,0,0-.25-.6h0a1.17,1.17,0,0,0,.22-.37c.17-.83.33-1.68.49-2.52.08-.44.15-.88.22-1.31l.1-.17.13-.3a1.67,1.67,0,0,0,.12-.23c.26-.54.28-1.2.82-1.6a.93.93,0,0,0,.31-.23,1.44,1.44,0,0,1,1.45-.65,9,9,0,0,1,1.35.21,6,6,0,0,1,1.47,1c.41.47,1,1,.66,1.78,0,.1.09.25.17.47a2.44,2.44,0,0,0,.19-.32,1.78,1.78,0,0,0-.24-1.45,4.13,4.13,0,0,0-1.61-1.52,3.47,3.47,0,0,0-1-.34,1.14,1.14,0,0,0-.29-.15,3.76,3.76,0,0,0-1.37.1,1.68,1.68,0,0,0-1.14.74.8.8,0,0,1-.21.15c-.3.5-.62,1-.87,1.51-.08.18,0,.44,0,.67l0,.12-.15.09a2.78,2.78,0,0,0-.27.51c-.17.49-.3,1-.45,1.5l-.07,0a9.08,9.08,0,0,1,1.67-4.48,2.72,2.72,0,0,1,3-1A5.28,5.28,0,0,1,116,77.76a2.61,2.61,0,0,1,.22,3.63,10.79,10.79,0,0,1-3.69,3.09c-.94.54-1.92,1-2.94,1.53a1.7,1.7,0,0,0,.31.41,9.16,9.16,0,0,0,4.79,1.94,4,4,0,0,0,3.77-2.47,1.46,1.46,0,0,0-.29-1.6,1.56,1.56,0,0,0-1.69-.45,1.61,1.61,0,0,0-1.07,1.34.58.58,0,0,0,.75.69.41.41,0,0,0,.25-.25c0-.51.37-.46.83-.54l-.2,1a2.86,2.86,0,0,0-.07-.28c0-.13-.12-.25-.18-.37-.07.12-.15.24-.21.36a.49.49,0,0,0,0,.21,3,3,0,0,1-.31.11.85.85,0,0,1-1-.71,1.66,1.66,0,0,1,1.08-1.6,1.71,1.71,0,0,1,1.78.16c.17-.33.15-.41-.13-.51a2.2,2.2,0,0,0-1.6-.07,2,2,0,0,0-1.45,2,1,1,0,0,0,1.1,1,4,4,0,0,0,1-.37,1.1,1.1,0,0,1-1.31.59,1.32,1.32,0,0,1-1.08-1.31,2.41,2.41,0,0,1,2-2.3,2.35,2.35,0,0,1,2.68,2.39.86.86,0,0,1-.07.25,4,4,0,0,1-.13-.55,1.56,1.56,0,0,0-.51-1.15c-.07-.06-.2,0-.3-.08a1,1,0,0,0,.07.3c.06.12.21.22.25.34a2.3,2.3,0,0,1-.27,2.11c-.13.17-.19.42-.35.51-.56.33-.92.92-1.62,1.06a.79.79,0,0,0-.69.67,7.52,7.52,0,0,0,1.16-.38,4.36,4.36,0,0,0,1.82-1.79Zm-7.82,2.61-.06,0s0,0,0,.06,0,0,.06,0Z"/>
    <path class="cls-7" d="M112.3,89.87l.09.14c-.14.22-.21.4.16.43l-.25.26c-.27-.4-.53-.81-.82-1.19s-.46-.49-.69-.74c-.09-.1-.12-.25-.22-.32a.59.59,0,0,0-.35,0,.23.23,0,0,0-.12.19,3.63,3.63,0,0,0,.16.81c.14.32,0,.38-.26.44l-.14.29-.12.81-.28.06-.1-.67,0-.24c-.06-.41-.1-.83-.18-1.24s-.16-.65-.25-1l0,0-.06,0a.13.13,0,0,0-.06,0l0-.17c.29-.41-.06-.62-.28-.87l-.14-.2-.49.08,0,.1c-.06.07-.09.16-.16.2-.59.41-1.16.86-1.78,1.21-.93.51-1.87,1-2.84,1.42a5,5,0,0,1-1.34.29,1.85,1.85,0,0,1-1.53-.52,2.42,2.42,0,0,1-.69-.94A6,6,0,0,1,99.37,87a2.48,2.48,0,0,1,2.13-2.85,15.57,15.57,0,0,1,1.67-.09l0,.22a5.75,5.75,0,0,1-1.08.16,2.5,2.5,0,0,0-1.79.67,1.45,1.45,0,0,0-.62,1.2c.07.62.1,1.24.17,1.86a1.38,1.38,0,0,0,1.28,1.33,5.25,5.25,0,0,0,3.33-.79c.94-.54,1.84-1.16,2.72-1.78a7.76,7.76,0,0,0,.93-1c-.43-.16-.75-.26-1-.4-.09,0-.13-.23-.19-.35a1.29,1.29,0,0,1,.39,0c.42.18.83.38,1.3.6a5.41,5.41,0,0,0,.15-.57c.05-.29.08-.59.11-.88a3.06,3.06,0,0,1,.25.6c.08.4.23.55.6.38.66-.31,1.28-.68,1.92-1a.93.93,0,0,0,.38,0,8.91,8.91,0,0,0,.93-.57c.4-.29.78-.62,1.17-.93v-.16l.13-.1c.38,0,.56-.28.77-.5a11.87,11.87,0,0,0,.89-1,5.8,5.8,0,0,0,.36-.59l.17.09c0,.1-.07.22-.12.32a6.13,6.13,0,0,1-2,2.21c-.64.46-1.26,1-1.91,1.38a6.82,6.82,0,0,1-1,.45,4,4,0,0,0-.48.19l-1.6.87c.09.64.66,1,1.24,1.29a13.05,13.05,0,0,0,3.36,1.29c.29.07.6.07.9.12.07,0,.13.1.27.2a2.22,2.22,0,0,1-1.4,0c-.71-.2-1.41-.44-2.12-.66a.84.84,0,0,0-.38-.06.3.3,0,0,0-.22.16.24.24,0,0,0,.09.21c.48.15.6.62.86,1Z"/>
    <path class="cls-6" d="M107.92,86.67l.49-.08L106.57,88l-.53.36-.5.31-.69.39-.48.26-.14.06a5.67,5.67,0,0,1-2.53.69,2.21,2.21,0,0,1-2.29-1.53,4.41,4.41,0,0,1-.08-2.89c.37-1.22,1.46-1.86,3-1.84a12.89,12.89,0,0,1,4.37,1l1.71.68c.15-1.19.3-2.35.44-3.51l.07,0c0,.25,0,.49,0,.73l-.09,1.62h0c0,.29-.06.59-.11.88a5.41,5.41,0,0,1-.15.57c-.47-.22-.88-.42-1.3-.6a1.29,1.29,0,0,0-.39,0c.06.12.1.3.19.35.29.14.61.24,1,.4a7.76,7.76,0,0,1-.93,1c-.88.62-1.78,1.24-2.72,1.78a5.25,5.25,0,0,1-3.33.79,1.38,1.38,0,0,1-1.28-1.33c-.07-.62-.1-1.24-.17-1.86a1.45,1.45,0,0,1,.62-1.2,2.5,2.5,0,0,1,1.79-.67,5.75,5.75,0,0,0,1.08-.16l0-.22a15.57,15.57,0,0,0-1.67.09A2.48,2.48,0,0,0,99.37,87a6,6,0,0,0,.19,1.48,2.42,2.42,0,0,0,.69.94,1.85,1.85,0,0,0,1.53.52,5,5,0,0,0,1.34-.29c1-.43,1.91-.91,2.84-1.42.62-.35,1.19-.8,1.78-1.21.07,0,.1-.13.16-.2Zm0-.66c-1-.38-2-.75-2.89-1a7.11,7.11,0,0,0-3.6-.32A1.58,1.58,0,0,0,100,86a6,6,0,0,0,0,2,1.53,1.53,0,0,0,1.9,1.33,7,7,0,0,0,2.68-.93A17.66,17.66,0,0,0,107.91,86Z"/>
    <path class="cls-8" d="M131.41,91.21c.21.34.44.68.63,1a1.42,1.42,0,0,1,.06.42,2.44,2.44,0,0,0-.36-.56,1.66,1.66,0,0,0-.74-.44c-1.5-.23-3-.41-4.51-.61l-2.72-.38a1,1,0,0,0-.33.08l-.17-.1-1-.23-.43-.12c-.15-.07-.29-.14-.22.14l-5.36,3.33a1.48,1.48,0,0,1-.35.19c-.23.08-.5.13-.59-.16,0-.11.14-.35.28-.44,1.93-1.22,3.86-2.41,5.8-3.61l.81-.09h.09l.56.1h0l.11,0h0a1.41,1.41,0,0,0,1.3.22h0c.16.17.34.28.56.08h0l.13,0,.11,0,.14,0a0,0,0,0,1,.07,0l1.66.28.1,0a.61.61,0,0,0,.81.13Z"/>
    <path class="cls-9" d="M105.23,101.6l0-.1,0-.15.09-.31.17.07.31-.46,0,.5.41-.31L106,102l-.06.24c-.17.53-.35,1-.52,1.57l-.32.93-.35,1,0,.24c0,.16-.07.32-.11.47l-.18.74-.11.49-.13.29-.24.46-.19.53-.41-.16c.12-.24.39-.53.33-.71a1.53,1.53,0,0,1,.16-1.17c.18-.46.4-.9.62-1.41-.22-.29-.19-.48.19-.72-.3-.25,0-.44.08-.64s.26-.25.23-.33a3.13,3.13,0,0,1,.2-1.43,1.37,1.37,0,0,0,0-.35h0C105.16,101.84,105.19,101.72,105.23,101.6Zm.42,0v.08h.07a.12.12,0,0,0,0-.08Z"/>
    <path class="cls-10" d="M109.46,91l.28-.06.12.47h0c-.06.24-.11.49-.17.73h0l-.36.41a5,5,0,0,1-1,1.17,6.14,6.14,0,0,1-1.72.69,1.35,1.35,0,0,1-1.49-.45c0-.07-.19-.08-.3-.11l-.11-.24a1.48,1.48,0,0,0,0-.41,1.5,1.5,0,0,1,.38-1.19c.08-.05.2,0,.31-.05a.94.94,0,0,1-.06.3.86.86,0,0,0,0,1.21l.12.16c.09.1.15.24.26.3a1.78,1.78,0,0,0,1.62-.29l.2-.09c.12,0,.29.06.36,0a8.15,8.15,0,0,0,.72-.72s0-.13,0-.21h0l.22-.44s0,0,0,0c.2-.12.32-.26.16-.5h0Z"/>
    <path class="cls-4" d="M106.19,98.94a4.84,4.84,0,0,1,.46-.33L112.46,95l.11,0c-.1.13-.18.31-.31.39-1.86,1.17-3.73,2.32-5.59,3.48l-.6.37,0-.08Z"/>
    <path class="cls-11" d="M105.12,102a1.37,1.37,0,0,1,0,.35,3.13,3.13,0,0,0-.2,1.43c0,.08-.16.21-.23.33s-.38.39-.08.64c-.38.24-.41.43-.19.72-.22.51-.44,1-.62,1.41a1.53,1.53,0,0,0-.16,1.17c.06.18-.21.47-.33.71l-.14.09-.08-.09,1.37-4.76C104.67,103.3,104.9,102.64,105.12,102Z"/>
    <path class="cls-6" d="M104.86,93.85c.11,0,.25,0,.3.11a1.35,1.35,0,0,0,1.49.45,6.14,6.14,0,0,0,1.72-.69,5,5,0,0,0,1-1.17l.36-.41a3.22,3.22,0,0,1-2.28,2.29,2.3,2.3,0,0,1-2,0A3.11,3.11,0,0,1,104.86,93.85Z"/>
    <path class="cls-6" d="M105.45,93.47a.86.86,0,0,1,0-1.21.94.94,0,0,0,.06-.3c-.11,0-.23,0-.31.05a1.5,1.5,0,0,0-.38,1.19,1.48,1.48,0,0,1,0,.41,1.48,1.48,0,0,1,.51-1.88l.14-.11.15-.08.08,0,.68-.21c.19.6.12.76-.31.79l.32-.49-.07-.11c-.17.06-.4.08-.5.2s0,.31.08.48A1,1,0,0,0,105.45,93.47Z"/>
    <path class="cls-9" d="M106.07,99.24l.6-.37.32.52-.2.34-.2,0,.09.21-.39.87-.38-.5-.18.11-.09-.15,0-.12.06,0,.08-.06h0v-.18l.06-.06.14-.1c.27,0,.27,0,.08-.36Z"/>
    <path class="cls-6" d="M109.46,91l-.33.62a10.52,10.52,0,0,0-.25-3.79.13.13,0,0,1,.06,0l0,.08c.09.33.19.65.25,1s.12.83.18,1.24l0,.24Z"/>
    <path class="cls-6" d="M111.44,92.89l-1.13-2.29.31.41.23.38.46,1.06.23.38Z"/>
    <path class="cls-6" d="M107.45,93.64a1.78,1.78,0,0,1-1.62.29c-.11-.06-.17-.2-.26-.3A2.14,2.14,0,0,0,107.45,93.64Z"/>
    <path class="cls-6" d="M112.57,95l-.11,0-.89-1.83.55.79.18.3.3.64,0,.08A.18.18,0,0,0,112.57,95Z"/>
    <path class="cls-11" d="M105.73,100.38l.18-.11.38.5,0,.07-.41.31,0-.5-.31.46-.09-.15,0-.07.08-.18h.07v-.11l.09-.18h0Z"/>
    <path class="cls-6" d="M109.86,91.41l-.12-.47.12-.81.23-.14.14.22-.06.12-.14-.07Z"/>
    <path class="cls-6" d="M108.72,92.62c0,.08,0,.18,0,.21a8.15,8.15,0,0,1-.72.72c-.07.06-.24,0-.36,0Z"/>
    <path class="cls-6" d="M126.92,90.45l-1.66-.28Z"/>
    <path class="cls-10" d="M105.83,92.17c0-.17-.15-.4-.08-.48s.33-.14.5-.2l.07.11-.32.49Z"/>
    <path class="cls-6" d="M124.26,90a1.41,1.41,0,0,1-1.3-.22Z"/>
    <path class="cls-6" d="M108.55,86.79c.22.25.57.46.28.87Z"/>
    <path class="cls-6" d="M122.18,89.66l-.81.09-.05-.07a.12.12,0,0,0-.07-.05v0Z"/>
    <path class="cls-6" d="M115.08,93.38l-.11.12c-.14-.22-.28-.44-.43-.66l0-.1Z"/>
    <path class="cls-6" d="M127.83,90.6a.61.61,0,0,1-.81-.13Z"/>
    <path class="cls-6" d="M109.69,92.14c.06-.24.11-.49.17-.73C109.8,91.65,109.75,91.9,109.69,92.14Z"/>
    <path class="cls-12" d="M104.85,89.06l.69-.39Z"/>
    <path class="cls-13" d="M112.12,93.93l-.55-.79-.13-.25.1-.06Z"/>
    <path class="cls-13" d="M114.56,92.74l0,.1-.42-.37-.23-.37.55.49Z"/>
    <path class="cls-6" d="M124.81,90.09c-.22.2-.4.09-.56-.08Z"/>
    <path class="cls-13" d="M110.17,90.33l.06-.12h0l.39.8-.31-.41Z"/>
    <path class="cls-12" d="M106,88.36l.53-.36Z"/>
    <path class="cls-6" d="M122.83,89.77l-.56-.1Z"/>
    <path class="cls-6" d="M109.13,91.62c.16.24,0,.38-.16.5Z"/>
    <path class="cls-6" d="M109,92.17l-.22.44Z"/>
    <path class="cls-6" d="M106.07,99.24l0,.07-.2.16h0l.12-.37.05,0Z"/>
    <path class="cls-11" d="M105.23,101.6c0,.12-.07.24-.11.36C105.16,101.84,105.19,101.72,105.23,101.6Z"/>
    <path class="cls-11" d="M106,99.16l-.05,0,.2-.17Z"/>
    <path class="cls-10" d="M105.87,99.48h0l.12.2-.14.1-.08-.09Z"/>
    <path class="cls-6" d="M105.74,100.08l-.06,0,.06-.23.08.13h0Z"/>
    <path class="cls-10" d="M105.82,100l-.08-.13,0-.12a.18.18,0,0,0,0,.07Z"/>
    <path class="cls-10" d="M105.66,100.43l-.09.18h0v0l0-.09Z"/>
    <path class="cls-6" d="M105.3,101.35l0,.15Z"/>
    <path class="cls-12" d="M104.23,89.38l.14-.06Z"/>
    <path class="cls-10" d="M105.4,91.62l-.14.11Z"/>
    <path class="cls-6" d="M105.66,100.43l-.1,0,0-.15.06.1Z"/>
    <path class="cls-10" d="M105.47,101l.09.15-.17-.07v0l0,0Z"/>
    <path class="cls-10" d="M105.66,100.43l-.06-.1,0-.1.09.15Z"/>
    <path class="cls-9" d="M105.57,100.61v.11h-.07l0-.1h0Z"/>
    <path class="cls-6" d="M123,89.79l-.11,0Z"/>
    <polygon class="cls-6" points="105.55 100.6 105.53 100.61 105.52 100.59 105.54 100.57 105.55 100.6"/>
    <path class="cls-6" d="M105.47,101l-.07,0,0-.11Z"/>
    <path class="cls-6" d="M124.94,90.12l-.13,0Z"/>
    <path class="cls-6" d="M105.82,99.83a.18.18,0,0,1,0-.07l0-.08.08.09Z"/>
    <path class="cls-6" d="M125.19,90.16l-.14,0Z"/>
    <path class="cls-10" d="M105.63,91.51l-.08,0Z"/>
    <path class="cls-2" d="M116.05,94.4c1.75-1.08,3.5-2.16,5.24-3.26a1.56,1.56,0,0,1,1.17-.21c.88.16,1.76.28,2.64.42s1.47.27,2.21.39c.31.05.63.05.94.08l.25.05c.28,0,.58,0,.86,0,.57.08,1.13.17,1.69.3.13,0,.26.18.33.3.64,1.06,1.25,2.13,1.89,3.19.51.85,1,1.69,1.57,2.53s.95,1.41,1.41,2.13c.28.44.49.93.77,1.38.53.84,1.11,1.65,1.64,2.5s.93,1.63,1.42,2.43c.26.44.6.83.87,1.27.54.88,1,1.79,1.57,2.67.39.63.83,1.23,1.23,1.85.15.23.23.51.37.74.54.89,1.09,1.77,1.64,2.65.4.62.84,1.2,1.23,1.82.28.45.48.94.77,1.39.53.84,1.11,1.65,1.64,2.5s.94,1.65,1.44,2.47c.26.43.61.83.87,1.26.44.72.83,1.47,1.27,2.19s1,1.55,1.53,2.33c.25.39.41.81.66,1.2.5.78,1,1.54,1.53,2.33.28.43.47.91.75,1.34.55.87,1.14,1.71,1.69,2.58s1,1.65,1.43,2.47l0,.13-.23.14L135.17,155.6a4.11,4.11,0,0,0-.3.29l-.75.47-.25-.06-.64-1-28.36-45.73c-.19-.53-.47-1.06-.07-1.62l-.2-.5.06-.24.35-.43a2.24,2.24,0,0,0,.47-1.43h0V105h0c.09-.22.2-.44.28-.67.32-1,.69-2,1-3a2.44,2.44,0,0,1,1.08-1.7c2.28-1.38,4.53-2.8,6.79-4.2.57-.36.61-.35,1,.24s.56.94.87,1.38a.75.75,0,0,1,.08.82l-.3.18a4.14,4.14,0,0,0-1.81,2,6.54,6.54,0,0,0-.24.75v.31l-.09.37a2.19,2.19,0,0,0-.27,1.73l0,.91a10.08,10.08,0,0,0,.41,1.32,5.35,5.35,0,0,0,.72,1.16c.39.48.69,1.06,1.31,1.3a6.68,6.68,0,0,0,1.15.61,8.32,8.32,0,0,0,1.9.44,4,4,0,0,0,2.1-.17c.6-.29,1.18-.63,1.79-.91a4.49,4.49,0,0,0,2.06-2.36,6.06,6.06,0,0,0,.49-3.15,2.4,2.4,0,0,0-.37-1.54c0-.06,0-.18-.06-.25a11,11,0,0,0-1.06-1.75,9.28,9.28,0,0,0-1.44-1.1,4.35,4.35,0,0,0-2.33-.75A2.08,2.08,0,0,0,119,97l-.42.15c-.06,0-.13-.08-.18-.07-.69.16-.7.16-1.06-.42l-1.15-1.86-.11-.35Zm35.69,38.66h0l0-.24h0l0-.11h0l.18-.5-.11-.05-.24.31-.17.12-.11.07-.41.25-.79.13-.34,0h-.19l-.35-.12-.48-.16v0l-.26-.25a1.16,1.16,0,0,0-.18.27c-.05.12,0,.26-.09.38a4.19,4.19,0,0,1-.62,1.37,1.73,1.73,0,0,1-1.84.58c-.1,0-.2-.1-.3-.15l-.12.18.35.51.07.16a1.65,1.65,0,0,0-.06.49c.07.35.18.7.27,1.05s.12.43.19.64h0a.7.7,0,0,0,.15,1c.06,0,.16.08.17.13.06.4.3.3.55.22a1.59,1.59,0,0,1,.38-.06l.88-.15h0a.47.47,0,0,0,.73.15v0c.11.31.37.29.57.17s.08-.39,0-.59h0c0-.11.1-.23.13-.34a5.68,5.68,0,0,1,.29-1,2.5,2.5,0,0,1,1.89-1.26c.6-.11.65-.19.38-.74a1,1,0,0,1-.08-.25c-.11-.63-.49-1.21-.35-1.9,0-.05-.06-.12-.1-.19A.07.07,0,0,0,151.74,133.06Zm-11.33,13.88v-.14a0,0,0,0,1,0-.06c0-.15.15-.37.09-.44a1.4,1.4,0,0,0-.66-.51,20.42,20.42,0,0,0-2.07-.2c-.1,0-.28.11-.28.18a10.46,10.46,0,0,0,0,1.12l-.07.11c-.42.24-.84.49-1.27.72s-.53.57,0,1l0,.17v.35h0l-.19.72h0c-.25.15-.47.33-.41.69.08,0,.14,0,.19,0a2.86,2.86,0,0,1,2.31.1c.08,0,.34-.09.37-.18.12-.4.18-.81.27-1.21h0l1-.78.37-.09h.66l-.06-.22,0-.17a.55.55,0,0,0-.16-.72l0-.12v-.32Zm-8.94-9.6-.1.17s0,0,0,0l-.82.81-.13.08-1.06.38V139a5.72,5.72,0,0,0,.57.24,1.57,1.57,0,0,1,1.26,1.47c.05.41.22.5.58.29a1.64,1.64,0,0,1,2.13.21c.07.06.2.05.3.07l.1.13a1.42,1.42,0,0,0,.15.48.44.44,0,0,0,.4.08,7.14,7.14,0,0,0,.47-.81l.2-.17c.3-.12.68-.14.66-.61l.14-.11c.67-.13,1-.75.54-1.21a4.08,4.08,0,0,1-1-1.65c-.08-.24-.28-.41-.51-.26a5.26,5.26,0,0,1-1.68.74h0a2,2,0,0,0-.23-.18c-.41-.25-.82-.5-1.24-.73a3.54,3.54,0,0,0-.57-.22l-.11.59ZM146,144.4a2.46,2.46,0,0,0-2.57-4.2,2.46,2.46,0,1,0,2.57,4.2Zm-8.51-.71a2.48,2.48,0,0,0,3.78.52.56.56,0,0,0,.16-.7,3.15,3.15,0,0,1,0-2.32.55.55,0,0,0-.21-.69,2.48,2.48,0,0,0-3.71,3.19Zm4.69-3.9a7.52,7.52,0,0,1,1-.62c.41-.18.87-.23,1.3-.37a.44.44,0,0,0,.25-.3,2.47,2.47,0,1,0-4.84.05.65.65,0,0,0,.32.39C140.89,139.24,141.53,139.49,142.21,139.79Z"/>
    <path class="cls-14" d="M160.55,139.87l0-.13.45-.09-.05.57-26.4,16.37c-.21-.42.26-.36.39-.55l25.5-15.81Z"/>
    <path class="cls-9" d="M134.57,156.59,161,140.22c.48-.1.51-.17.29-.54l-.3-.49c.08,0,.21,0,.25.09.29.45.58.91.85,1.38,0,.06,0,.17,0,.26s-.23,0-.35,0-.35,0-.38,0c-.28-.55-.6-.28-.93-.08q-11.72,7.27-23.44,14.55c-1.2.74-2.38,1.54-3.56,2.31l-.38-.61.26-.57c.43.67.43.67,1.1.25A1.64,1.64,0,0,0,134.57,156.59Z"/>
    <path class="cls-7" d="M116.22,98l.3-.18c.41-.1.52-.31.33-.64s-.48-.78-.72-1.16a3.54,3.54,0,0,0-1.08-1.32c-.15-.1-.21-.4-.23-.62s-.06-.34-.3-.32l-.93-1.5.28.11.25.07.42.37c.15.22.29.44.43.66-.09.44,0,.58.6.73a4.59,4.59,0,0,1,.48.17h0l-.12.49a1.4,1.4,0,0,0,.13.36c.41.62.81,1.25,1.26,1.84.14.19.42.26.63.39l.38.34c-.17.54-.07.78.39,1,.23.13.45.29.75.48-.55.3-.49.68-.32,1.09,0,.1.06.26,0,.31s-.2,0-.31,0l-.26,0-.08-.16.07-.16h-.14l-.13-.12a.88.88,0,0,0,0-.16c0-.47-.52-.57-.7-.87-.33-.55-.67-1-1.37-.82Z"/>
    <path class="cls-5" d="M123.27,90.65l.17.1-.22.06Z"/>
    <path class="cls-5" d="M121.59,90.44c-.07-.28.07-.21.22-.14Z"/>
    <path class="cls-5" d="M128.5,91.87l-.25-.05Z"/>
    <path class="cls-5" d="M121.25,89.63a.12.12,0,0,1,.07.05l-.07,0Z"/>
    <path class="cls-15" d="M133.37,157.66c1.18-.77,2.36-1.57,3.56-2.31q11.72-7.29,23.44-14.55c.33-.2.65-.47.93.08,0,.07.25,0,.38,0s.23,0,.35,0q-13.9,8.61-27.79,17.24c-.33.21-.51.2-.67-.16A2.33,2.33,0,0,0,133.37,157.66Z"/>
    <path class="cls-15" d="M133.25,156.48l-.26.57L103.38,109.3a2.53,2.53,0,0,1-.19-.48l.14-.09.41.16.1.15c.32.63.6,1.29,1,1.89q13.91,22.45,27.83,44.9a1.9,1.9,0,0,0,.22.33c.06.06.17.06.25.09Z"/>
    <path class="cls-7" d="M117,86a4,4,0,0,1-1,.37,1,1,0,0,1-1.1-1,2,2,0,0,1,1.45-2,2.2,2.2,0,0,1,1.6.07c.28.1.3.18.13.51a1.71,1.71,0,0,0-1.78-.16,1.66,1.66,0,0,0-1.08,1.6.85.85,0,0,0,1,.71,3,3,0,0,0,.31-.11.49.49,0,0,1,0-.21c.06-.12.14-.24.21-.36.06.12.13.24.18.37A2.86,2.86,0,0,1,117,86Z"/>
    <path class="cls-7" d="M119.23,85.66l-.57,1a4.36,4.36,0,0,1-1.82,1.79,7.52,7.52,0,0,1-1.16.38.79.79,0,0,1,.69-.67c.7-.14,1.06-.73,1.62-1.06.16-.09.22-.34.35-.51a2.3,2.3,0,0,0,.27-2.11c0-.12-.19-.22-.25-.34a1,1,0,0,1-.07-.3c.1,0,.23,0,.3.08a1.56,1.56,0,0,1,.51,1.15,4,4,0,0,0,.13.55Z"/>
    <path class="cls-16" d="M113.7,76.72a3.47,3.47,0,0,1,1,.34,4.13,4.13,0,0,1,1.61,1.52,1.78,1.78,0,0,1,.24,1.45,2.44,2.44,0,0,1-.19.32c-.08-.22-.21-.37-.17-.47.33-.8-.25-1.31-.66-1.78a6,6,0,0,0-1.47-1Z"/>
    <path class="cls-7" d="M108.85,84.31l.09-1.62c0-.24,0-.48,0-.73.15-.5.28-1,.45-1.5a2.78,2.78,0,0,1,.27-.51l.1.16c-.07.43-.14.87-.22,1.31-.16.84-.32,1.69-.49,2.52A1.17,1.17,0,0,1,108.85,84.31Z"/>
    <path class="cls-7" d="M113.7,76.72l.36.42a9,9,0,0,0-1.35-.21,1.44,1.44,0,0,0-1.45.65.93.93,0,0,1-.31.23l-.26-.25a.8.8,0,0,0,.21-.15,1.68,1.68,0,0,1,1.14-.74,3.76,3.76,0,0,1,1.37-.1A1.14,1.14,0,0,1,113.7,76.72Z"/>
    <path class="cls-16" d="M114.12,92.47l-.25-.07-.28-.11-.83-.84.19-.35-.47-.1-.18-.3.25-.26.12,0c.15.17.3.35.44.53l.78,1.1Z"/>
    <path class="cls-16" d="M110.69,77.56l.26.25c-.54.4-.56,1.06-.82,1.6a1.67,1.67,0,0,1-.12.23l-.16.1c0-.23-.11-.49,0-.67C110.07,78.55,110.39,78.06,110.69,77.56Z"/>
    <path class="cls-13" d="M111.9,84a0,0,0,0,1,0,0l1.14-.71.42-.28.6-.33c-.39.31-.77.64-1.17.93a8.91,8.91,0,0,1-.93.57.93.93,0,0,1-.38,0Z"/>
    <path class="cls-13" d="M112.67,90.47l-.12,0c-.37,0-.3-.21-.16-.43Z"/>
    <path class="cls-13" d="M112.3,89.87l-.4-.49Z"/>
    <path class="cls-7" d="M109.85,79.74l.16-.1-.13.3,0-.08Z"/>
    <path class="cls-16" d="M109.83,79.86l0,.08-.1.17-.1-.16Z"/>
    <path class="cls-13" d="M112.76,91.45l.83.84.93,1.5,0,.12h-.2a3.54,3.54,0,0,0-.19-.39l-2.4-3.27-.75-1L110.8,89l-.09-.06h0l-.25-.4-.11.06.25.51L111,90l.19.41.26.54.06.11a.09.09,0,0,1,0,.07l-.06,0-.49-.77c-.19-.27-.41-.4-.72-.16h0l-.14-.22-.09-.15c.23-.06.4-.12.26-.44a3.63,3.63,0,0,1-.16-.81.23.23,0,0,1,.12-.19.59.59,0,0,1,.35,0c.1.07.13.22.22.32.23.25.49.48.69.74s.55.79.82,1.19l.18.3Z"/>
    <path class="cls-6" d="M114.1,82.72l-.6.33.61-.49Z"/>
    <path class="cls-10" d="M110,89.84l.09.15-.23.14Z"/>
    <path class="cls-10" d="M109.36,90.33l0-.24Z"/>
    <path class="cls-10" d="M109,87.87l0-.08.06,0Z"/>
    <path class="cls-10" d="M107.92,86.67l0,.1Z"/>
    <path class="cls-17" d="M133.25,156.48l-.14-.23L104.22,109.5a4.22,4.22,0,0,0-.38-.46l-.1-.15.19-.53c.15-.12.44-.16.24-.46l.13-.29.3-.19.2.5c-.36.16-.62.43-.48.83a3.41,3.41,0,0,0,.55.79l28.36,45.73.64,1,.25.06.75-.47.09.15c-.13.19-.6.13-.39.55a1.64,1.64,0,0,1-.22.14C133.68,157.15,133.68,157.15,133.25,156.48Z"/>
    <path class="cls-4" d="M114.49,93.91l0-.12c.24,0,.27.11.3.32s.08.52.23.62a3.54,3.54,0,0,1,1.08,1.32c.24.38.49.77.72,1.16s.08.54-.33.64a.75.75,0,0,0-.08-.82c-.31-.44-.58-.92-.87-1.38s-.41-.6-1-.24c-2.26,1.4-4.51,2.82-6.79,4.2a2.44,2.44,0,0,0-1.08,1.7c-.26,1-.63,2-1,3-.08.23-.19.45-.28.67-.15-.07,0-.52-.39-.28l.32-.93c.17-.52.35-1,.52-1.57L106,102l.33-1.14,0-.07.39-.87.11-.17.2-.34L114.28,95c.41-.25.45-.43.23-.86Z"/>
    <path class="cls-17" d="M105.1,104.72c.38-.24.24.21.39.28h0v.32h0l-.47,1.43-.35.43-.25-.06.18-.74c0-.15.07-.31.11-.47l0-.24Z"/>
    <path class="cls-5" d="M104.41,107.12l.25.06-.06.24-.3.19Z"/>
    <path class="cls-5" d="M104.17,107.9c.2.3-.09.34-.24.46Z"/>
    <path class="cls-11" d="M105.65,101.62h.07a.12.12,0,0,1,0,.08h-.07Z"/>
    <path class="cls-5" d="M104.75,105.67l0,.24Z"/>
    <path class="cls-5" d="M106,102l-.06.24Z"/>
    <path class="cls-11" d="M114.51,94.11c.22.43.18.61-.23.86L107,99.39l-.32-.52c1.86-1.16,3.73-2.31,5.59-3.48.13-.08.21-.26.31-.39a.18.18,0,0,1,.07,0l.31-.19.15-.09a2,2,0,0,0,.48-.1C113.89,94.43,114.2,94.26,114.51,94.11Z"/>
    <path class="cls-11" d="M106,99.67l-.12-.2a1.56,1.56,0,0,0,.2-.16C106.29,99.63,106.29,99.63,106,99.67Z"/>
    <path class="cls-11" d="M106.79,99.73l-.11.17-.09-.21Z"/>
    <path class="cls-10" d="M105.74,100.08l.08-.06Z"/>
    <path class="cls-7" d="M113.1,94.67l-.15.09h-.32l-.33-.52-.18-.3-.58-1.1-.23-.38a.92.92,0,0,0,0-.37c-.12-.24-.28-.46-.42-.69l-.23-.38-.39-.8c.31-.24.53-.11.72.16l.49.77.12.23c0,.07-.07.17,0,.22.51,1,1,2,1.54,3Z"/>
    <path class="cls-13" d="M110.85,91.39c.14.23.3.45.42.69a.92.92,0,0,1,0,.37Z"/>
    <path class="cls-13" d="M112.3,94.23l.33.52,0,.12Z"/>
    <path class="cls-5" d="M112.6,94.87l0-.12H113l-.31.19Z"/>
    <path class="cls-16" d="M116.26,98.43c.7-.14,1,.27,1.37.82.18.3.68.4.7.87a.88.88,0,0,1,0,.16l-1,.78,1.63,1.1.13-.1-.48-1.34.26,0c.11,0,.26,0,.31,0s0-.21,0-.31c-.17-.41-.23-.79.32-1.09-.3-.19-.52-.35-.75-.48-.46-.25-.56-.49-.39-1l-.38-.34.6-.38L119,97a1.71,1.71,0,0,0,1.43.14s.08-.11.12-.16a4.35,4.35,0,0,1,2.33.75,9.28,9.28,0,0,1,1.44,1.1,11,11,0,0,1,1.06,1.75c0,.07,0,.19.06.25a2.4,2.4,0,0,1,.37,1.54,6.06,6.06,0,0,1-.49,3.15,4.49,4.49,0,0,1-2.06,2.36c-.61.28-1.19.62-1.79.91a4,4,0,0,1-2.1.17,8.32,8.32,0,0,1-1.9-.44,6.68,6.68,0,0,1-1.15-.61,2.67,2.67,0,0,1-.08-.48c0-.15,0-.35.12-.42.31-.22.67-.36,1-.57a1,1,0,0,1,1-.12,1.87,1.87,0,0,1,.93.44c.06.06.18.06.29.09l.19-.52-.58-.39a3.18,3.18,0,0,0,2.7-.74,3,3,0,0,0,0-4.49,2.91,2.91,0,0,0-2.62-.7c0,.15.09.24.13.34a14.31,14.31,0,0,1,.57,1.79c.13.72-.43,1.12-1.1.86a6.1,6.1,0,0,1-1-.56c-.26-.15-.5-.34-.85-.58a6.73,6.73,0,0,0-.14,1.16,3,3,0,0,0,2.24,2.89L119,106l-.78-.11c-.2-.24-.32-.5-.48-.54-.5-.11-1-.12-1.32-.62a.76.76,0,0,1-.12-.81c.12-.22.21-.45.35-.73-.19,0-.37.12-.43.06-.4-.37-.65,0-1,.15-.46.25-.73.14-.86-.37a1.32,1.32,0,0,0-.09-.3c-.18-.23-.1-.39.14-.55.62.55,1-.17,1.51-.27l-.19-.35a3.26,3.26,0,0,1-.55-1,1.52,1.52,0,0,1,.61-1.69c.06,0,.06-.16.09-.25Z"/>
    <path class="cls-18" d="M151.48,132.57l.17-.12.17.24h0l0,.11h0l0,.24h0l0,.11,0,.25v.19h0v.12l.6,2.16c-.12,0-.29.06-.45.11a2.59,2.59,0,0,0-2.2,2.83h0l-.07.48-.47-.06v0l-.73-.15h0l-1.54,0a.84.84,0,0,1,.07-.19l2.62-3.41.65-.65-.1-.1-.74.59-.74.66-.29.29c-.3.35-.62.7-.91,1.06s-.66.85-1,1.27h-.06l-.11-.61h0c-.14-.73-.27-1.45-.4-2.18l-.07-.16v-.33a4.31,4.31,0,0,0,.88,0,2.33,2.33,0,0,0,1.82-2l0-.18h0l0-.11v-.13l.21-.13a.06.06,0,0,0,.07,0v0l.4.24.11,0h0l.12,0h.38a.1.1,0,0,0,.06.05H150l1-.2.41-.25Z"/>
    <path class="cls-19" d="M146,144.4a2.46,2.46,0,1,1,.83-3.34A2.45,2.45,0,0,1,146,144.4Zm-1.54-3.3a.38.38,0,0,0-.6-.14c-.22.13-.43.37-.22.61a.64.64,0,0,0,.6.13A.4.4,0,0,0,144.49,141.1Z"/>
    <path class="cls-20" d="M137.52,143.69a2.48,2.48,0,0,1,3.71-3.19.55.55,0,0,1,.21.69,3.15,3.15,0,0,0,0,2.32.56.56,0,0,1-.16.7A2.48,2.48,0,0,1,137.52,143.69Z"/>
    <path class="cls-21" d="M136.29,140.26l-.14.11-.66.61-.2.17-.66.7-.36-.45-.1-.13a7.51,7.51,0,0,0-1.13-.7,1.74,1.74,0,0,0-1.64.41,2.15,2.15,0,0,0-1.7-2l.69-.5.13-.08.82-.81s0,0,0,0l.1-.17h0l.28-.45c.59.43,1.08,1,1.87,1h0a2.72,2.72,0,0,0,1.83-.54l1.19,1.91-2.69-.31-1.24-.09V139l1.2.14,2.91.61Z"/>
    <path class="cls-22" d="M142.21,139.79c-.68-.3-1.32-.55-1.93-.85a.65.65,0,0,1-.32-.39,2.44,2.44,0,0,1,1-2.54,2.46,2.46,0,0,1,3.81,2.49.44.44,0,0,1-.25.3c-.43.14-.89.19-1.3.37A7.52,7.52,0,0,0,142.21,139.79Zm.69-2.58.12-.82c-.21,0-.49-.1-.62,0s-.16.4-.24.61Z"/>
    <path class="cls-7" d="M115.88,98.66c0,.09,0,.22-.09.25a1.52,1.52,0,0,0-.61,1.69,3.26,3.26,0,0,0,.55,1l.19.35c-.54.1-.89.82-1.51.27-.24.16-.32.32-.14.55a1.32,1.32,0,0,1,.09.3c.13.51.4.62.86.37.3-.15.55-.52,1-.15.06.06.24,0,.43-.06-.14.28-.23.51-.35.73a.76.76,0,0,0,.12.81c.31.5.82.51,1.32.62.16,0,.28.3.48.54l.78.11.07-.17.1,0,.58.39-.19.52c-.11,0-.23,0-.29-.09a1.87,1.87,0,0,0-.93-.44,1,1,0,0,0-1,.12c-.31.21-.67.35-1,.57-.09.07-.11.27-.12.42a2.67,2.67,0,0,0,.08.48c-.62-.24-.92-.82-1.31-1.3a5.35,5.35,0,0,1-.72-1.16,10.08,10.08,0,0,1-.41-1.32l.35-.26-.4-.65a2.19,2.19,0,0,1,.27-1.73l.41,0-.32-.33v-.31a2.31,2.31,0,0,0,.32-.45A2.81,2.81,0,0,1,115.88,98.66Z"/>
    <path class="cls-23" d="M136.15,148.85l0-.17-.18-.7c.6-.17,1.22-.32,1.49-1l.07-.11.26-1.08,2.18.25-1.8,1.85-.7.92.16.13.89-1.08.13-.11.11-.08,1.59-1.34.1.39a0,0,0,0,0,0,.06v.14h0v.32s0,.08,0,.12c0,.24.1.48.16.72l0,.17-.51.21H140l-.37.09a1.12,1.12,0,0,0-1,.78h0l-.54,1.26a2.68,2.68,0,0,0-2.27-.2l-.08-.09.16-.39h0c.06-.24.13-.48.19-.72h0C136.16,149.09,136.15,149,136.15,148.85Z"/>
    <path class="cls-5" d="M135,156l-.09-.15a4.11,4.11,0,0,1,.3-.29L160.32,140l.14.22Z"/>
    <path class="cls-24" d="M146.39,138.59c.32-.42.64-.85,1-1.27s.61-.71.91-1.06l.29-.29.74-.66.19.16-2.62,3.41a.84.84,0,0,0-.07.19l1.54,0-.88.15a1.59,1.59,0,0,0-.38.06c-.25.08-.49.18-.55-.22,0,0-.11-.09-.17-.13a.7.7,0,0,1-.15-1c0,.21.07.41.11.61v.08Z"/>
    <path class="cls-25" d="M134,138.94l2.69.31-1.19-1.91a2.72,2.72,0,0,1-1.83.54,5.26,5.26,0,0,0,1.68-.74c.23-.15.43,0,.51.26a4.08,4.08,0,0,0,1,1.65c.43.46.13,1.08-.54,1.21l.54-.49-2.91-.61Z"/>
    <path class="cls-25" d="M138.13,147.91l1.8-1.85-2.18-.25-.26,1.08a10.46,10.46,0,0,1,0-1.12c0-.07.18-.18.28-.18a20.42,20.42,0,0,1,2.07.2,1.4,1.4,0,0,1,.66.51c.06.07-.06.29-.09.44l-.1-.39-1.59,1.34-.11.08-.13.11Z"/>
    <path class="cls-24" d="M149.62,138.84a2.59,2.59,0,0,1,2.2-2.83c.16,0,.33-.08.45-.11-.2-.74-.4-1.45-.6-2.16v-.12h0v-.19l0-.25,0,0,0,0c0,.07.11.14.1.19-.14.69.24,1.27.35,1.9a1,1,0,0,0,.08.25c.27.55.22.63-.38.74a2.5,2.5,0,0,0-1.89,1.26,5.68,5.68,0,0,0-.29,1C149.72,138.61,149.66,138.73,149.62,138.84Z"/>
    <path class="cls-25" d="M130.39,138.44l-.69.5a2.15,2.15,0,0,1,1.7,2,1.74,1.74,0,0,1,1.64-.41,7.51,7.51,0,0,1,1.13.7c-.1,0-.23,0-.3-.07a1.64,1.64,0,0,0-2.13-.21c-.36.21-.53.12-.58-.29a1.57,1.57,0,0,0-1.26-1.47,5.72,5.72,0,0,1-.57-.24v-.17Z"/>
    <path class="cls-24" d="M148.53,132.88V133l0,.11h0l0,.18a2.33,2.33,0,0,1-1.82,2,4.31,4.31,0,0,1-.88,0v.33l-.35-.51.12-.18c.1.05.2.11.3.15a1.73,1.73,0,0,0,1.84-.58,4.19,4.19,0,0,0,.62-1.37c.05-.12,0-.26.09-.38a1.16,1.16,0,0,1,.18-.27l.26.25a.06.06,0,0,1-.07,0l-.16-.09Z"/>
    <path class="cls-4" d="M118.55,97.1l-.6.38c-.21-.13-.49-.2-.63-.39-.45-.59-.85-1.22-1.26-1.84a1.4,1.4,0,0,1-.13-.36l.23-.14,1.15,1.86c.36.58.37.58,1.06.42C118.42,97,118.49,97.08,118.55,97.1Z"/>
    <path class="cls-25" d="M136,149.94l-.16.39.08.09a2.68,2.68,0,0,1,2.27.2l.54-1.26c-.09.4-.15.81-.27,1.21,0,.09-.29.22-.37.18a2.86,2.86,0,0,0-2.31-.1c-.05,0-.11,0-.19,0C135.5,150.27,135.72,150.09,136,149.94Z"/>
    <path class="cls-4" d="M115.88,98.66a2.81,2.81,0,0,0-1.39,1.65,2.31,2.31,0,0,1-.32.45,6.54,6.54,0,0,1,.24-.75,4.14,4.14,0,0,1,1.81-2l0,.4Z"/>
    <path class="cls-25" d="M133.63,137.88c-.79,0-1.28-.56-1.87-1l-.28.45.11-.59a3.54,3.54,0,0,1,.57.22c.42.23.83.48,1.24.73A2,2,0,0,1,133.63,137.88Z"/>
    <path class="cls-25" d="M137.42,147c-.27.66-.89.81-1.49,1l.18.7c-.49-.39-.47-.68,0-1S137,147.24,137.42,147Z"/>
    <path class="cls-24" d="M145.82,135.79c.13.73.26,1.45.4,2.18-.07-.21-.13-.42-.19-.64s-.2-.7-.27-1.05A1.65,1.65,0,0,1,145.82,135.79Z"/>
    <path class="cls-4" d="M120.52,96.93s-.07.15-.12.16A1.71,1.71,0,0,1,119,97,2.08,2.08,0,0,1,120.52,96.93Z"/>
    <path class="cls-5" d="M104.87,109.54a3.41,3.41,0,0,1-.55-.79c-.14-.4.12-.67.48-.83C104.4,108.48,104.68,109,104.87,109.54Z"/>
    <path class="cls-25" d="M134.27,141.4l.36.45.66-.7a7.14,7.14,0,0,1-.47.81.44.44,0,0,1-.4-.08A1.42,1.42,0,0,1,134.27,141.4Z"/>
    <path class="cls-5" d="M105,106.75l.47-1.43A2.24,2.24,0,0,1,105,106.75Z"/>
    <path class="cls-25" d="M131.34,137.55l-.82.81Z"/>
    <path class="cls-25" d="M138.7,149.36a1.12,1.12,0,0,1,1-.78Z"/>
    <path class="cls-16" d="M113.8,103.17l.4.65-.35.26Z"/>
    <path class="cls-24" d="M149.08,139.26l.47.06.07-.48c.11.2.31.42,0,.59S149.19,139.57,149.08,139.26Z"/>
    <path class="cls-25" d="M135.49,141l.66-.61C136.17,140.84,135.79,140.86,135.49,141Z"/>
    <path class="cls-24" d="M148.35,139.11l.73.15A.47.47,0,0,1,148.35,139.11Z"/>
    <path class="cls-26" d="M151,132.89l-1,.2.16-.07Z"/>
    <path class="cls-25" d="M140.59,148.1c-.06-.24-.11-.48-.16-.72A.55.55,0,0,1,140.59,148.1Z"/>
    <path class="cls-25" d="M140.13,148.48l.51-.21.06.22Z"/>
    <path class="cls-26" d="M151.82,132.69l-.17-.24.24-.31.11.05Z"/>
    <path class="cls-25" d="M136.16,149.21c-.06.24-.13.48-.19.72C136,149.69,136.1,149.45,136.16,149.21Z"/>
    <path class="cls-16" d="M114.16,101.07l.32.33-.41,0Z"/>
    <path class="cls-5" d="M116.16,94.75l-.23.14.12-.49Z"/>
    <path class="cls-24" d="M149.21,133l-.4-.24.48.16v0A.18.18,0,0,0,149.21,133Z"/>
    <path class="cls-17" d="M160.46,140.23l-.14-.22.23-.14Z"/>
    <path class="cls-25" d="M136.15,148.85c0,.12,0,.24,0,.35C136.16,149.09,136.15,149,136.15,148.85Z"/>
    <path class="cls-5" d="M134.12,156.36l-.25-.06Z"/>
    <path class="cls-25" d="M140.41,147.26v0Z"/>
    <path class="cls-24" d="M150.17,133l-.16.07h-.12a.1.1,0,0,1-.06-.05Z"/>
    <path class="cls-4" d="M105.48,105.32v0Z"/>
    <path class="cls-24" d="M149.64,133h-.19l-.12,0h0a.25.25,0,0,0,0-.07v0Z"/>
    <path class="cls-26" d="M151.74,133.05l0-.24Z"/>
    <path class="cls-25" d="M131.47,137.34l-.1.17Z"/>
    <path class="cls-24" d="M149.84,133h0Z"/>
    <path class="cls-25" d="M140.41,146.94v0Z"/>
    <path class="cls-26" d="M151.78,133.12l0,0,0,0,0-.11A.07.07,0,0,1,151.78,133.12Z"/>
    <path class="cls-25" d="M140,148.49h0Z"/>
    <path class="cls-26" d="M151.8,132.8l0-.11Z"/>
    <path class="cls-26" d="M151.48,132.57l-.11.07Z"/>
    <path class="cls-16" d="M118.51,100.56l-.07-.16h.14Z"/>
    <path class="cls-9" d="M103.84,109a4.22,4.22,0,0,1,.38.46l28.89,46.75c-.08,0-.19,0-.25-.09a1.9,1.9,0,0,1-.22-.33q-13.92-22.44-27.83-44.9C104.44,110.33,104.16,109.67,103.84,109Z"/>
    <path class="cls-6" d="M113.08,83.33l-1.14.71Z"/>
    <path class="cls-7" d="M112.76,91.45l-.28-.45.47.1Z"/>
    <path class="cls-5" d="M113.26,94.46l1-.56h.2l0,.2c-.31.15-.62.32-.93.46a2,2,0,0,1-.48.1l0-.08Z"/>
    <path class="cls-26" d="M111.7,90.24l-.75-1Z"/>
    <path class="cls-12" d="M111,90l.19.41Z"/>
    <path class="cls-12" d="M111.5,91.09l.13.24-.07,0-.12-.23Z"/>
    <path class="cls-12" d="M111.41,90.91l.06.11Z"/>
    <path class="cls-26" d="M110.8,89l-.09-.06Z"/>
    <path class="cls-13" d="M111.56,91.37l.07,0,.58,1.18.16.32.35.7.07.11.47.82-.21.13c-.51-1-1-2-1.54-3C111.49,91.54,111.54,91.44,111.56,91.37Z"/>
    <path class="cls-12" d="M149.5,135.47l-.19-.16.74-.59.1.1Z"/>
    <path class="cls-12" d="M148.57,136l-.29.29Z"/>
    <path class="cls-26" d="M148.53,132.88l.05-.22.16.09Z"/>
    <path class="cls-26" d="M148.45,133.31l0-.18Z"/>
    <path class="cls-26" d="M151.67,133.42v0Z"/>
    <path class="cls-26" d="M149.89,133.09h0Z"/>
    <path class="cls-26" d="M151.68,133.62v0Z"/>
    <path class="cls-26" d="M149.28,132.93a.25.25,0,0,1,0,.07l-.11,0A.18.18,0,0,1,149.28,132.93Z"/>
    <path class="cls-26" d="M148.49,133.12l0-.11Z"/>
    <path class="cls-26" d="M149.33,133l.12,0Z"/>
    <path class="cls-27" d="M144.49,141.1a.4.4,0,0,1-.22.6.64.64,0,0,1-.6-.13c-.21-.24,0-.48.22-.61A.38.38,0,0,1,144.49,141.1Z"/>
    <path class="cls-12" d="M134,138.94l-.05.22-1.2-.14v-.17Z"/>
    <path class="cls-27" d="M142.9,137.21l-.74-.21c.08-.21.1-.5.24-.61s.41,0,.62,0Z"/>
    <path class="cls-12" d="M138.13,147.91l.35,0-.89,1.08-.16-.13Z"/>
    <path class="cls-12" d="M138.61,147.77l.11-.08Z"/>
    <path class="cls-18" d="M146.39,138.59l-.07.07v-.08Z"/>
    <path class="cls-12" d="M112.37,92.83l-.16-.32Z"/>
  </g>
</svg>
