<svg id="Layer_1" data-name="Layer 1" xmlns="http://www.w3.org/2000/svg" viewBox="0 0 198.73 153.12">
  <defs>
    <style>
      .cls-1 {
        fill: #00a651;
      }

      .cls-2 {
        fill: #fa3d36;
      }
    </style>
  </defs>
  <g>
    <rect class="cls-1" x="8.55" y="91.58" width="80.06" height="33.96" rx="3.35"/>
    <rect class="cls-1" x="110.78" y="91.58" width="80.06" height="33.96" rx="3.35"/>
    <path class="cls-2" d="M153.91,45.4c-8.61-6.45-18.27-7-27.13-.88-7.12,4.89-11.9,11.79-15.8,19.33-2,3.81-3.61,7.79-5.5,11.92-.17-.57-.29-.88-.35-1.2-.09-.57-.18-1.15-.22-1.73A100.21,100.21,0,0,0,98.65,43.4C96,36.64,92.88,30.15,87.84,24.78l0,0-7.37-7.2-.74-.46h0a6.85,6.85,0,0,0-1-1.06C70,10.28,60.56,6.93,50.08,7.59c-7.78.49-14.61,3.46-19.83,9.52h0c-8.47,8.51-12.33,18.79-11,30.69,1,9.09,6.19,16.17,12.41,22.5,6.64,6.76,14.56,11.77,22.82,16.29l5,2.52,1,.49,3,1.15.42.44h0l.54,0,10.87,0L61.57,85.63h0l-.06,0c-3-1.85-6.25-3.44-9-5.61-4.42-3.46-9-6.88-12.69-11.06-9-10.25-9.27-22.38-1.43-33.6.43-.61.79-1.26,1.18-1.89h0l0,0h0c1.41-1.29,2.73-2.67,4.23-3.83,8-6.15,16.79-6.35,25.82-3.17C73.46,27.75,77,30,80.72,31.88h0l1.91,1.54h0l.73.75c0,.14.08.19.21.17h0l4.74,5.42h0c2,3.9,4.2,7.71,6,11.72,1.42,3.23,2.33,6.7,3.46,10.06,0,.4.08.79.13,1.18.59,7.36,1.19,14.72,1.76,22.08.12,1.55.1,3-2.17,3a2.79,2.79,0,0,0-2,1.6c-.61,1.78-1.86,1.81-3.33,1.84-3,0-6.1.21-9.16.32v41.51l33.15,9.84V124.15a10.34,10.34,0,0,1-.25-1.44q0-14.4,0-28.81a15.52,15.52,0,0,1,.42-2.42c-.9-.08-1.81-.21-2.72-.24-2.22-.06-4.67.63-5.7-2.48-.24-.71-1.56-1.07-2.83-1.88,1.38-4.2,2.66-8.66,4.31-13,3.09-8.1,7.26-15.57,14.31-21,6.53-5,13.49-5.14,20.15-.64s9,11,6.77,19c-2.57,9.32-9.23,14.55-18,17.49-3.13,1.05-6.41,1.65-9.63,2.46.82,0,1.64,0,2.46,0l15.2-.42c1-.49,2.11-1,3.14-1.48,6.2-3.18,11.54-7.32,14.84-13.62C164.16,65.15,164.31,53.19,153.91,45.4Zm-129.34,12h0c.1,0,.22.13.32.16C24.79,57.48,24.67,57.39,24.57,57.35Zm.55-.12s0-.08,0-.11l-.11-.06.11.06S25.13,57.19,25.12,57.23Zm2-31.92-.76-.6.76.6Zm3.13-8.2h0l2.21-.75Zm6.32,15.62a1.59,1.59,0,0,1,.16-.32h0A1.59,1.59,0,0,0,36.58,32.73Zm44-8.47a2.3,2.3,0,0,1,.15-.32A2.3,2.3,0,0,0,80.61,24.26Zm.39.27h0a2.3,2.3,0,0,0,.15-.32A2.3,2.3,0,0,1,81,24.53Zm2.37-2.81h0c.63.45,1.25.93,1.9,1.37C84.62,22.65,84,22.17,83.37,21.72Zm7.5,19.5h0c.26.52.51,1,.76,1.57C91.38,42.26,91.13,41.74,90.87,41.22Zm12.87,37.19h0a1.59,1.59,0,0,0-.16.32A1.59,1.59,0,0,1,103.74,78.41Z"/>
  </g>
</svg>
