<svg id="Layer_1" data-name="Layer 1" xmlns="http://www.w3.org/2000/svg" xmlns:xlink="http://www.w3.org/1999/xlink" viewBox="0 0 384.11 308.85">
  <defs>
    <style>
      .cls-1 {
        fill: #00a651;
      }

      .cls-2 {
        fill: #fa3d36;
      }

      .cls-3 {
        fill: url(#Winter_Multicolor);
      }

      .cls-4 {
        fill: url(#Winter_Multicolor-2);
      }

      .cls-5 {
        fill: url(#Winter_Multicolor-3);
      }

      .cls-6 {
        fill: url(#Winter_Multicolor-4);
      }

      .cls-7 {
        fill: url(#Winter_Multicolor-5);
      }

      .cls-8 {
        fill: url(#Winter_Multicolor-6);
      }

      .cls-9 {
        fill: url(#Winter_Multicolor-7);
      }

      .cls-10 {
        fill: url(#Winter_Multicolor-8);
      }

      .cls-11 {
        fill: url(#Winter_Multicolor-9);
      }

      .cls-12 {
        fill: url(#Winter_Multicolor-10);
      }

      .cls-13 {
        fill: url(#Winter_Multicolor-11);
      }

      .cls-14 {
        fill: url(#Winter_Multicolor-12);
      }

      .cls-15 {
        fill: url(#Winter_Multicolor-13);
      }

      .cls-16 {
        fill: url(#Winter_Multicolor-14);
      }

      .cls-17 {
        fill: url(#Winter_Multicolor-15);
      }

      .cls-18 {
        fill: url(#Winter_Multicolor-16);
      }

      .cls-19 {
        fill: url(#Winter_Multicolor-17);
      }
    </style>
    <linearGradient id="Winter_Multicolor" data-name="Winter Multicolor" x1="210.74" y1="161.92" x2="11.79" y2="163.66" gradientUnits="userSpaceOnUse">
      <stop offset="0" stop-color="#b1c7d7"/>
      <stop offset="0.26" stop-color="#edd9e3"/>
      <stop offset="0.35" stop-color="#b1c7d7"/>
      <stop offset="0.67" stop-color="#cbd1e4"/>
      <stop offset="0.7" stop-color="#cfdfdf"/>
      <stop offset="1" stop-color="#edd9e3"/>
    </linearGradient>
    <linearGradient id="Winter_Multicolor-2" x1="367.46" y1="163.32" x2="168.51" y2="165.05" xlink:href="#Winter_Multicolor"/>
    <linearGradient id="Winter_Multicolor-3" x1="359.64" y1="166.83" x2="160.69" y2="168.56" xlink:href="#Winter_Multicolor"/>
    <linearGradient id="Winter_Multicolor-4" x1="352.17" y1="145.33" x2="153.22" y2="147.06" xlink:href="#Winter_Multicolor"/>
    <linearGradient id="Winter_Multicolor-5" x1="210.7" y1="157.31" x2="11.75" y2="159.04" xlink:href="#Winter_Multicolor"/>
    <linearGradient id="Winter_Multicolor-6" x1="370.85" y1="139.99" x2="171.9" y2="141.72" xlink:href="#Winter_Multicolor"/>
    <linearGradient id="Winter_Multicolor-7" x1="210.51" y1="135.75" x2="11.56" y2="137.49" xlink:href="#Winter_Multicolor"/>
    <linearGradient id="Winter_Multicolor-8" x1="210.79" y1="168.05" x2="11.84" y2="169.79" xlink:href="#Winter_Multicolor"/>
    <linearGradient id="Winter_Multicolor-9" x1="353.71" y1="168.35" x2="154.76" y2="170.09" xlink:href="#Winter_Multicolor"/>
    <linearGradient id="Winter_Multicolor-10" x1="210.58" y1="143.4" x2="11.63" y2="145.13" xlink:href="#Winter_Multicolor"/>
    <linearGradient id="Winter_Multicolor-11" x1="389.31" y1="137.97" x2="190.36" y2="139.71" xlink:href="#Winter_Multicolor"/>
    <linearGradient id="Winter_Multicolor-12" x1="352.04" y1="145.94" x2="153.09" y2="147.68" xlink:href="#Winter_Multicolor"/>
    <linearGradient id="Winter_Multicolor-13" x1="210.75" y1="163.22" x2="11.8" y2="164.95" xlink:href="#Winter_Multicolor"/>
    <linearGradient id="Winter_Multicolor-14" x1="379.16" y1="152.35" x2="180.21" y2="154.09" xlink:href="#Winter_Multicolor"/>
    <linearGradient id="Winter_Multicolor-15" x1="210.79" y1="168.28" x2="11.84" y2="170.02" xlink:href="#Winter_Multicolor"/>
    <linearGradient id="Winter_Multicolor-16" x1="210.62" y1="147.9" x2="11.67" y2="149.64" xlink:href="#Winter_Multicolor"/>
    <linearGradient id="Winter_Multicolor-17" x1="312.89" y1="167.13" x2="113.94" y2="168.87" xlink:href="#Winter_Multicolor"/>
  </defs>
  <rect class="cls-1" x="119.89" y="186.21" width="149.01" height="114.59" rx="1.9"/>
  <g>
    <rect class="cls-1" x="103.38" y="91.58" width="80.06" height="33.96" rx="3.35"/>
    <rect class="cls-1" x="205.62" y="91.58" width="80.06" height="33.96" rx="3.35"/>
    <path class="cls-2" d="M248.75,45.4c-8.61-6.45-18.27-7-27.13-.88-7.12,4.89-11.9,11.79-15.8,19.33-2,3.81-3.61,7.79-5.51,11.92-.16-.57-.28-.88-.34-1.2a16.69,16.69,0,0,1-.22-1.73,100.21,100.21,0,0,0-6.26-29.44c-2.62-6.76-5.77-13.25-10.81-18.62l0,0-7.37-7.2-.74-.46h0a6.9,6.9,0,0,0-1-1.06c-8.66-5.74-18.11-9.09-28.59-8.43-7.79.49-14.61,3.46-19.83,9.52h0c-8.47,8.51-12.34,18.79-11,30.69,1,9.09,6.19,16.17,12.41,22.5,6.64,6.76,14.56,11.77,22.82,16.29l5,2.52,1,.49,3,1.15.42.44h0l.53,0,10.88,0-13.73-5.56h0l-.06,0c-3-1.85-6.25-3.44-9-5.61-4.42-3.46-9-6.88-12.68-11.06-9-10.25-9.28-22.38-1.43-33.6.42-.61.78-1.26,1.17-1.89h0v0h0c1.4-1.29,2.73-2.67,4.23-3.83,8-6.15,16.79-6.35,25.82-3.17,3.88,1.37,7.43,3.64,11.13,5.5h0l1.92,1.54v0c.24.26.48.51.73.76,0,.14.08.19.21.17h0l4.74,5.42h0c2,3.9,4.21,7.71,6,11.72,1.42,3.23,2.33,6.7,3.46,10.06l.12,1.18q.9,11,1.77,22.08c.12,1.55.1,3-2.17,3a2.81,2.81,0,0,0-2,1.6c-.6,1.78-1.85,1.81-3.32,1.84-3.06,0-6.11.21-9.16.32v41.51L211,142.93V124.15a9,9,0,0,1-.25-1.44q0-14.4,0-28.81a13.48,13.48,0,0,1,.42-2.42c-.91-.08-1.81-.21-2.72-.24-2.23-.06-4.67.63-5.71-2.48-.23-.71-1.55-1.07-2.83-1.88,1.39-4.2,2.67-8.66,4.31-13,3.1-8.1,7.27-15.57,14.31-21,6.53-5,13.5-5.13,20.15-.63s9,11,6.78,19c-2.57,9.32-9.23,14.55-18,17.49-3.13,1.05-6.42,1.65-9.63,2.46.82,0,1.64,0,2.46,0l15.19-.42c1.05-.49,2.12-1,3.15-1.48,6.19-3.18,11.54-7.33,14.83-13.62C259,65.15,259.15,53.19,248.75,45.4Zm-129.34,12h0c.1,0,.22.13.31.16C119.63,57.48,119.51,57.39,119.41,57.35Zm.55-.12a.36.36,0,0,1,0-.11l-.11-.06.11.06A.36.36,0,0,0,120,57.23Zm2-31.92-.76-.6.76.6Zm3.13-8.2h0l2.21-.75Zm6.32,15.62a1.59,1.59,0,0,1,.16-.32h0A1.59,1.59,0,0,0,131.42,32.73Zm44-8.47c0-.1.12-.22.16-.32C175.56,24,175.47,24.16,175.44,24.26Zm.4.27h0a2.3,2.3,0,0,0,.15-.32A2.3,2.3,0,0,1,175.84,24.53Zm2.37-2.81h0c.63.46,1.25.94,1.9,1.38C179.46,22.65,178.84,22.17,178.21,21.72Zm7.5,19.5h0c.26.52.51,1,.76,1.57C186.22,42.26,186,41.74,185.71,41.22Zm12.86,37.19h0a1.59,1.59,0,0,0-.16.32A2.3,2.3,0,0,1,198.57,78.41Z"/>
  </g>
  <path class="cls-2" d="M181.41,300.27h24.53c-.6.29-1.19.83-1.79.84q-10.49.09-21,0C182.59,301.11,182,300.56,181.41,300.27Z"/>
  <polygon class="cls-2" points="210.89 227.22 178.42 216.52 178.42 301.21 210.89 301.21 210.89 227.22"/>
  <path class="cls-3" d="M25.39,161.53c-2.88-.16-4.86.89-5.84,3.82s.35,5,2.32,6.83c2.38,2.24,5.24,2.13,7.94,1,5.9-2.49,7.26-10.54,2.78-15.59a13,13,0,0,0-15.27-3,15.88,15.88,0,0,1-3.71.79c-.2-2.23,1.75-2.27,3-2.92,7.58-3.87,16.89,0,20,7.12a12.93,12.93,0,0,1-3,14c-2.85,2.77-8,3.35-12.17,1.37-3-1.43-5.27-6.11-4.53-9.28.91-3.93,4.05-6.63,7.55-6.38,4.51.34,7.81,4.69,5.84,8.32a6.54,6.54,0,0,1-4.52,3.1c-1.45.07-3.49-1.48-4.39-2.87-1.42-2.22.7-3.54,2.24-4.78,3.77.64,4.17,1.21,3.5,5.05-1.19.15-1.77-.14-1.3-1.52.12-.35-.26-1.25-.5-1.29a3.73,3.73,0,0,0-2.09.27c-.27.13-.4,1.06-.23,1.48.86,2.15,2.48,1.68,4.1,1,.67-1,2-2,1.88-2.86A3.88,3.88,0,0,0,25.39,161.53Z"/>
  <path class="cls-4" d="M347.34,168.29c2.49,1.87,5.11,3.05,8.34,2.11a7.11,7.11,0,0,1,2.47.23l.2.79a9.53,9.53,0,0,1-2.33,1.31c-7,1.57-14.25-3.76-13.47-11.19.61-5.74,7.23-9.45,12.05-6.74a6.78,6.78,0,0,1,3.22,8.72c-1.2,2.79-4.15,3.78-7.89,2.66a17.78,17.78,0,0,1-1.6-1.89,4,4,0,0,1,.37-5.06,3.33,3.33,0,0,1,4.72-.4c1,.7,1.46,2.07,2.34,3.41.45-2.34-.06-4.12-1.85-5.35a4.94,4.94,0,0,0-5.82-.08C344,159.46,343.63,164.65,347.34,168.29Z"/>
  <path class="cls-5" d="M290.34,163c2,1.45,3.93,1.55,6.23-.88-.12,3.13-.44,5.58,1.85,6.62l-5,3.88-4.85-3.22Z"/>
  <path class="cls-6" d="M275.71,147.34c.67-2.14,1.27-4,1.86-6h5.67l2.06,5.22-5,3.93C279.79,148.28,277.82,147.39,275.71,147.34Z"/>
  <path class="cls-7" d="M95.86,159.32c.46-1.57,1-3.52,1.58-5.43h5.74l1.88,5.3c-1.46,1.13-3.11,2.39-4.55,3.49Z"/>
  <path class="cls-8" d="M352.59,145c1.44-1.14,2.82-2.35,4.32-3.4,3.53-2.46,7.09-4.89,10.69-7.23.56-.37,1.44-.23,2.17-.32-.31.72-.43,1.72-1,2.12q-6.1,4.44-12.38,8.65a15.51,15.51,0,0,1-3.26,1.25Z"/>
  <path class="cls-9" d="M15.74,141.81c-2.19-2.23-4.42-4.42-6.54-6.71-.39-.43-.32-1.29-.46-1.95.66.12,1.51,0,1.95.38A59.15,59.15,0,0,1,16.43,139c.47.51.07,1.8.07,2.73Z"/>
  <path class="cls-10" d="M120.68,169.39a2.41,2.41,0,0,1-3,2.33c-1.12-.26-2.79-2-2.66-2.83A4.37,4.37,0,0,1,117.9,166C119.59,165.64,120.72,167,120.68,169.39Z"/>
  <path class="cls-11" d="M316.48,165.86l.93,3.73-3.18,2.12-3-2.58,1.55-3.43Z"/>
  <path class="cls-12" d="M40.33,142h3.88l1,3.59-3.36,2.22L39,145.28C39.44,144.25,39.88,143.14,40.33,142Z"/>
  <path class="cls-13" d="M341,141.25l-3-1.56c.16-1.08.34-2.22.54-3.54l3.54-.62C343.89,138.91,343.89,138.91,341,141.25Z"/>
  <path class="cls-14" d="M300.23,146.38c0-1.52,1.93-3.57,3.18-3a5.17,5.17,0,0,1,2.74,3.13,2.51,2.51,0,0,1-2.82,3A3,3,0,0,1,300.23,146.38Zm3.15,2.71c.78-1.16,1.68-1.94,1.56-2.48-.17-.77-1.1-1.37-1.7-2-.53.72-1.38,1.38-1.49,2.16C301.67,147.28,302.57,148,303.38,149.09Z"/>
  <path class="cls-15" d="M27.17,168.12c.67-3.84.27-4.41-3.5-5.05l1.72-1.54A3.88,3.88,0,0,1,29,165.24c.11.86-1.21,1.9-1.88,2.86Z"/>
  <path class="cls-16" d="M330.5,155c-.82-1.11-1.72-1.81-1.63-2.36.11-.77.95-1.44,1.48-2.15.61.67,1.54,1.26,1.71,2C332.18,153.1,331.27,153.87,330.5,155Z"/>
  <path class="cls-17" d="M71.26,166.69l.93,3.72L69,172.53l-3-2.57,1.56-3.44Z"/>
  <path class="cls-18" d="M63.59,144.78c2,1.45,3.93,1.55,6.23-.89-.12,3.14-.44,5.58,1.85,6.63l-5,3.88-4.85-3.23Z"/>
  <path class="cls-19" d="M264.22,169.82c-.81-1.12-1.71-1.81-1.63-2.36.11-.78,1-1.45,1.48-2.16.61.67,1.54,1.27,1.71,2C265.9,167.88,265,168.65,264.22,169.82Z"/>
</svg>
